<?xml version="1.0" encoding="UTF-8"?>
<!--Generator: Apple Native CoreSVG 232.5-->
<!DOCTYPE svg
PUBLIC "-//W3C//DTD SVG 1.1//EN"
       "http://www.w3.org/Graphics/SVG/1.1/DTD/svg11.dtd">
<svg version="1.1" xmlns="http://www.w3.org/2000/svg" xmlns:xlink="http://www.w3.org/1999/xlink" width="670.898" height="458.74">
 <g>
  <rect height="458.74" opacity="0" width="670.898" x="0" y="0"/>
  <path d="M513.184 28.0762C513.184 41.0156 496.094 64.4531 496.094 96.9238C496.094 152.832 531.982 187.5 592.529 187.5C626.953 187.5 644.775 171.875 656.738 171.875C664.551 171.875 668.701 178.711 668.701 188.232C668.701 225.005 629.64 291.074 548.777 302.127C545.863 226.295 487.119 168.724 409.18 160.645C401.908 149.182 393.718 138.722 384.68 129.404C398.317 62.9394 454.815 17.3299 498.291 15.625C508.057 15.3809 513.184 20.5078 513.184 28.0762Z" fill="#ffffff"/>
  <path d="M131.592 428.467L395.752 428.467C465.088 428.467 518.799 375.977 518.799 308.35C518.799 241.211 464.111 190.43 391.113 189.941C362.549 135.254 311.523 103.516 252.686 103.516C173.096 103.516 105.957 165.283 98.3887 245.605C56.8848 258.057 30.2734 293.213 30.2734 336.182C30.2734 390.869 71.5332 428.467 131.592 428.467Z" fill="#ffffff"/>
 </g>
</svg>
