<?xml version="1.0" encoding="UTF-8"?>
<!--Generator: Apple Native CoreSVG 232.5-->
<!DOCTYPE svg
PUBLIC "-//W3C//DTD SVG 1.1//EN"
       "http://www.w3.org/Graphics/SVG/1.1/DTD/svg11.dtd">
<svg version="1.1" xmlns="http://www.w3.org/2000/svg" xmlns:xlink="http://www.w3.org/1999/xlink" width="582.275" height="612.887">
 <g>
  <rect height="612.887" opacity="0" width="582.275" x="0" y="0"/>
  <path d="M475.342 584.886C482.666 588.792 491.455 586.351 495.605 579.27L527.344 524.095C531.738 516.77 529.297 508.226 522.217 503.831C514.648 499.436 506.348 501.878 501.953 509.446L469.971 564.866C465.82 571.946 467.773 580.491 475.342 584.886Z" fill="#5ac8f5"/>
  <path d="M427.979 516.526C435.303 520.677 444.092 518.235 448.242 510.911L479.98 455.979C484.375 448.411 481.934 439.866 474.854 435.472C467.285 431.321 458.984 433.763 454.59 441.087L422.607 496.751C418.457 503.831 420.41 512.376 427.979 516.526Z" fill="#5ac8f5"/>
  <path d="M362.305 487.229L306.885 487.229L306.396 498.216L336.182 441.087C339.111 435.716 336.914 431.565 331.543 431.565L278.564 431.565C271.484 431.565 269.043 434.007 266.846 439.134L233.643 514.817C230.957 520.921 233.643 524.583 239.99 524.583L285.156 524.583L288.33 510.179L249.023 605.638C247.803 608.811 248.535 611.497 250.732 612.474C252.93 613.45 255.615 612.718 258.301 610.032L366.211 499.436C371.338 494.065 369.385 487.229 362.305 487.229Z" fill="#ffffff"/>
  <path d="M135.986 584.886C143.311 588.792 152.1 586.351 156.25 579.27L187.988 524.095C192.383 516.77 189.941 508.226 182.617 503.831C175.293 499.436 166.992 501.878 162.598 509.446L130.371 564.866C126.465 571.946 128.418 580.491 135.986 584.886Z" fill="#5ac8f5"/>
  <path d="M88.623 516.526C95.9473 520.677 104.736 518.235 108.887 510.911L140.625 455.979C145.02 448.411 142.578 439.866 135.254 435.472C127.93 431.321 119.629 433.763 115.234 441.087L83.252 496.751C79.1016 503.831 81.0547 512.376 88.623 516.526Z" fill="#5ac8f5"/>
  <path d="M139.648 396.653L442.627 396.653C522.705 396.653 582.275 335.862 582.275 260.667C582.275 182.786 518.799 125.901 436.035 125.901C405.518 65.5985 348.877 26.7802 278.32 26.7802C186.523 26.7802 110.84 98.8017 102.783 189.378C58.5938 202.317 24.9023 240.647 24.9023 292.161C24.9023 350.022 66.8945 396.653 139.648 396.653Z" fill="#ffffff"/>
 </g>
</svg>
