<?xml version="1.0" encoding="UTF-8"?>
<!--Generator: Apple Native CoreSVG 232.5-->
<!DOCTYPE svg
PUBLIC "-//W3C//DTD SVG 1.1//EN"
       "http://www.w3.org/Graphics/SVG/1.1/DTD/svg11.dtd">
<svg version="1.1" xmlns="http://www.w3.org/2000/svg" xmlns:xlink="http://www.w3.org/1999/xlink" width="528.076" height="530.029">
 <g>
  <rect height="530.029" opacity="0" width="528.076" x="0" y="0"/>
  <path d="M264.16 94.9707C275.635 94.9707 285.156 85.4492 285.156 73.7305L285.156 21.2402C285.156 9.52148 275.635 0 264.16 0C252.441 0 242.92 9.52148 242.92 21.2402L242.92 73.7305C242.92 85.4492 252.441 94.9707 264.16 94.9707ZM383.789 145.02C392.09 153.076 405.518 153.32 413.818 145.02L451.172 107.666C459.229 99.6094 459.229 85.9375 451.172 77.6367C443.115 69.5801 429.688 69.5801 421.387 77.6367L383.789 115.234C375.732 123.535 375.732 136.963 383.789 145.02ZM433.35 264.893C433.35 276.367 443.115 285.889 454.59 285.889L507.08 285.889C518.555 285.889 528.076 276.367 528.076 264.893C528.076 253.418 518.555 243.652 507.08 243.652L454.59 243.652C443.115 243.652 433.35 253.418 433.35 264.893ZM383.789 384.766C375.732 393.066 375.732 406.494 383.789 414.551L421.387 452.393C429.688 460.205 443.115 459.961 451.172 452.148C459.229 443.848 459.229 430.42 451.172 422.363L413.574 384.766C405.518 376.953 392.09 376.953 383.789 384.766ZM264.16 434.814C252.441 434.814 242.92 444.336 242.92 455.811L242.92 508.545C242.92 520.02 252.441 529.541 264.16 529.541C275.635 529.541 285.156 520.02 285.156 508.545L285.156 455.811C285.156 444.336 275.635 434.814 264.16 434.814ZM144.287 384.766C135.986 376.953 122.314 376.953 114.258 384.766L76.9043 422.119C68.8477 430.176 68.8477 443.604 76.6602 451.904C84.7168 459.717 98.3887 459.961 106.689 452.148L144.043 414.551C152.1 406.494 152.1 393.066 144.287 384.766ZM94.7266 264.893C94.7266 253.418 84.9609 243.652 73.4863 243.652L20.9961 243.652C9.52148 243.652 0 253.418 0 264.893C0 276.367 9.52148 285.889 20.9961 285.889L73.4863 285.889C84.9609 285.889 94.7266 276.367 94.7266 264.893ZM144.043 145.02C152.1 137.207 152.1 123.291 144.287 115.234L106.934 77.6367C98.877 69.8242 85.2051 69.5801 77.1484 77.6367C69.0918 85.9375 69.0918 99.6094 76.9043 107.422L114.258 145.02C122.314 153.076 135.742 153.076 144.043 145.02Z" fill="#ffd60a"/>
  <path d="M263.916 389.404C331.787 389.404 388.184 333.008 388.184 264.893C388.184 196.533 331.787 140.137 263.916 140.137C196.045 140.137 139.648 196.533 139.648 264.893C139.648 333.008 196.045 389.404 263.916 389.404Z" fill="#ffd60a"/>
 </g>
</svg>
