<?xml version="1.0" encoding="UTF-8"?>
<!--Generator: Apple Native CoreSVG 232.5-->
<!DOCTYPE svg
PUBLIC "-//W3C//DTD SVG 1.1//EN"
       "http://www.w3.org/Graphics/SVG/1.1/DTD/svg11.dtd">
<svg version="1.1" xmlns="http://www.w3.org/2000/svg" xmlns:xlink="http://www.w3.org/1999/xlink" width="582.275" height="559.326">
 <g>
  <rect height="559.326" opacity="0" width="582.275" x="0" y="0"/>
  <path d="M464.844 509.277L147.217 509.277C138.672 509.277 131.836 515.869 131.836 524.658C131.836 533.447 138.672 540.283 147.217 540.283L464.844 540.283C473.389 540.283 480.225 533.447 480.225 524.658C480.225 515.869 473.389 509.277 464.844 509.277Z" fill="#ffffff"/>
  <path d="M464.844 426.514L147.217 426.514C138.672 426.514 131.836 433.105 131.836 441.895C131.836 450.684 138.672 457.275 147.217 457.275L464.844 457.275C473.389 457.275 480.225 450.684 480.225 441.895C480.225 433.105 473.389 426.514 464.844 426.514Z" fill="#ffffff"/>
  <path d="M139.648 369.873L442.627 369.873C522.705 369.873 582.275 309.082 582.275 233.887C582.275 156.006 518.799 99.1211 436.035 99.1211C405.518 38.8184 348.877 0 278.32 0C186.523 0 110.84 72.0215 102.783 162.598C58.5938 175.537 24.9023 213.867 24.9023 265.381C24.9023 323.242 66.8945 369.873 139.648 369.873Z" fill="#ffffff"/>
 </g>
</svg>
