<?xml version="1.0" encoding="UTF-8"?>
<!--Generator: Apple Native CoreSVG 232.5-->
<!DOCTYPE svg
PUBLIC "-//W3C//DTD SVG 1.1//EN"
       "http://www.w3.org/Graphics/SVG/1.1/DTD/svg11.dtd">
<svg version="1.1" xmlns="http://www.w3.org/2000/svg" xmlns:xlink="http://www.w3.org/1999/xlink" width="582.275" height="562.889">
 <g>
  <rect height="562.889" opacity="0" width="582.275" x="0" y="0"/>
  <path d="M396.973 555.248L469.238 430.248C473.389 422.924 471.191 414.623 464.111 410.473C457.275 406.078 448.486 408.276 444.092 415.844L372.314 540.356C368.164 547.68 370.361 556.225 377.441 560.619C384.521 564.77 392.822 562.572 396.973 555.248Z" fill="#5ac8f5"/>
  <path d="M340.332 485.668L372.07 430.492C376.465 423.168 374.023 414.623 366.699 410.229C359.375 406.078 351.074 408.276 346.68 415.844L314.697 471.508C310.547 478.344 312.5 486.889 320.068 491.283C327.393 495.434 336.182 492.748 340.332 485.668Z" fill="#5ac8f5"/>
  <path d="M202.881 555.492L274.902 430.492C279.053 423.168 277.1 414.867 270.02 410.717C262.939 406.322 253.906 408.52 249.756 416.088L178.223 540.6C174.072 547.924 176.025 556.469 183.35 560.863C190.43 565.014 198.73 562.572 202.881 555.492Z" fill="#5ac8f5"/>
  <path d="M145.996 485.912L177.734 430.736C182.373 423.412 179.932 414.867 172.607 410.473C165.283 406.322 156.982 408.52 152.344 416.088L120.361 471.752C116.211 478.588 118.408 487.133 125.977 491.528C133.057 495.678 141.846 492.992 145.996 485.912Z" fill="#5ac8f5"/>
  <path d="M139.648 371.654L442.627 371.654C522.705 371.654 582.275 310.863 582.275 235.668C582.275 157.787 518.799 100.903 436.035 100.903C405.518 40.5998 348.877 1.78142 278.32 1.78142C186.523 1.78142 110.84 73.8029 102.783 164.379C58.5938 177.319 24.9023 215.649 24.9023 267.162C24.9023 325.024 66.8945 371.654 139.648 371.654Z" fill="#ffffff"/>
 </g>
</svg>
