<?xml version="1.0" encoding="UTF-8"?>
<!--Generator: Apple Native CoreSVG 232.5-->
<!DOCTYPE svg
PUBLIC "-//W3C//DTD SVG 1.1//EN"
       "http://www.w3.org/Graphics/SVG/1.1/DTD/svg11.dtd">
<svg version="1.1" xmlns="http://www.w3.org/2000/svg" xmlns:xlink="http://www.w3.org/1999/xlink" width="755.859" height="527.588">
 <g>
  <rect height="527.588" opacity="0" width="755.859" x="0" y="0"/>
  <path d="M644.531 373.779L682.373 411.377C690.186 419.189 690.186 432.129 682.373 439.697C674.561 447.51 661.621 447.998 654.053 439.941L615.967 402.344C608.154 394.531 608.154 381.592 615.967 373.779C623.779 366.211 636.719 366.211 644.531 373.779ZM623.779 260.742C623.779 304.261 600.293 342.747 565.474 363.989C558.638 292.96 501.603 239.487 426.758 231.934C418.951 219.609 410.01 208.368 400.027 198.419C421.224 163.339 459.724 139.648 503.174 139.648C569.092 139.648 623.779 194.58 623.779 260.742ZM755.859 260.742C755.859 271.973 746.826 281.006 735.84 281.006L682.861 281.006C672.119 281.006 662.598 271.973 662.598 260.742C662.598 250 672.119 240.479 682.861 240.479L735.84 240.479C746.826 240.479 755.859 250 755.859 260.742ZM682.373 81.7871C690.186 89.5996 690.186 102.783 682.373 110.596L644.775 147.949C636.719 156.006 623.779 155.762 615.967 147.949C608.154 140.137 608.154 127.197 615.967 119.629L654.053 81.7871C661.621 73.9746 674.561 73.9746 682.373 81.7871ZM352.783 81.7871L390.381 119.629C397.949 126.953 397.949 140.381 390.137 147.949C382.324 155.762 369.385 155.762 361.572 147.949L324.219 110.352C316.406 102.783 316.65 89.5996 324.463 81.7871C332.275 73.9746 345.215 74.2188 352.783 81.7871ZM523.438 27.5879L523.438 80.8105C523.438 91.5527 514.16 100.83 503.174 100.83C492.188 100.83 482.91 91.5527 482.91 80.8105L482.91 27.5879C482.91 16.8457 492.188 7.32422 503.174 7.32422C514.16 7.32422 523.438 16.8457 523.438 27.5879Z" fill="#ffd60a"/>
  <path d="M150.146 499.023L414.307 499.023C483.887 499.023 537.842 446.289 537.842 378.418C537.842 311.035 482.91 260.01 409.912 259.521C381.836 206.055 331.299 173.34 270.996 173.34C191.406 173.34 124.023 235.107 116.455 315.43C75.9277 327.637 48.3398 362.305 48.3398 406.25C48.3398 460.449 89.1113 499.023 150.146 499.023Z" fill="#ffffff"/>
 </g>
</svg>
